HIERARCHY
ROOT Hips
{
 OFFSET 0.000000 0.000000 0.000000
 CHANNELS 6 Xposition Yposition Zposition Yrotation Xrotation Zrotation
 JOINT Chest
 {
  OFFSET 0.000000 9.585900 0.002600
  CHANNELS 3 Yrotation Xrotation Zrotation
  JOINT Chest2
  {
   OFFSET 0.000000 9.601200 -0.005300
   CHANNELS 3 Yrotation Xrotation Zrotation
   JOINT Chest3
   {
    OFFSET 0.000000 9.561800 0.000000
    CHANNELS 3 Yrotation Xrotation Zrotation
    JOINT Chest4
    {
     OFFSET 0.000000 9.552100 0.000000
     CHANNELS 3 Yrotation Xrotation Zrotation
     JOINT Neck
     {
      OFFSET 0.000000 14.453000 0.000000
      CHANNELS 3 Yrotation Xrotation Zrotation
      JOINT Head
      {
       OFFSET 0.000000 8.936500 -0.011300
       CHANNELS 3 Yrotation Xrotation Zrotation
       End Site
       {
        OFFSET 0.000000 17.073600 -0.006000
       }
      }
     }
     JOINT RightCollar
     {
      OFFSET -2.921100 9.558500 0.000000
      CHANNELS 3 Yrotation Xrotation Zrotation
      JOINT RightShoulder
      {
       OFFSET -13.519700 0.000000 0.000000
       CHANNELS 3 Yrotation Xrotation Zrotation
       JOINT RightElbow
       {
        OFFSET 0.000000 -29.696600 0.000000
        CHANNELS 3 Yrotation Xrotation Zrotation
        JOINT RightWrist
        {
         OFFSET 0.000000 -24.004700 0.000000
         CHANNELS 3 Yrotation Xrotation Zrotation
         End Site
         {
          OFFSET 0.000000 -17.728500 0.000000
         }
        }
       }
      }
     }
     JOINT LeftCollar
     {
      OFFSET 2.921100 9.558500 0.000000
      CHANNELS 3 Yrotation Xrotation Zrotation
      JOINT LeftShoulder
      {
       OFFSET 13.519700 0.000000 0.000000
       CHANNELS 3 Yrotation Xrotation Zrotation
       JOINT LeftElbow
       {
        OFFSET 0.000000 -29.696600 0.000000
        CHANNELS 3 Yrotation Xrotation Zrotation
        JOINT LeftWrist
        {
         OFFSET 0.000000 -24.004700 0.000000
         CHANNELS 3 Yrotation Xrotation Zrotation
         End Site
         {
          OFFSET 0.000000 -17.728500 0.000000
         }
        }
       }
      }
     }
    }
   }
  }
 }
 JOINT RightHip
 {
  OFFSET -7.771700 -0.012900 -0.001300
  CHANNELS 3 Yrotation Xrotation Zrotation
  JOINT RightKnee
  {
   OFFSET 0.000000 -40.869800 0.001200
   CHANNELS 3 Yrotation Xrotation Zrotation
   JOINT RightAnkle
   {
    OFFSET 0.000000 -39.717900 0.002100
    CHANNELS 3 Yrotation Xrotation Zrotation
    JOINT RightToe
    {
     OFFSET 0.000000 -4.965400 11.033500
     CHANNELS 3 Yrotation Xrotation Zrotation
     End Site
     {
      OFFSET 0.000000 -1.423100 5.872300
     }
    }
   }
  }
 }
 JOINT LeftHip
 {
  OFFSET 7.771700 -0.012900 -0.001300
  CHANNELS 3 Yrotation Xrotation Zrotation
  JOINT LeftKnee
  {
   OFFSET 0.000000 -40.869800 0.001200
   CHANNELS 3 Yrotation Xrotation Zrotation
   JOINT LeftAnkle
   {
    OFFSET 0.000000 -39.717900 0.002100
    CHANNELS 3 Yrotation Xrotation Zrotation
    JOINT LeftToe
    {
     OFFSET 0.000000 -4.965400 11.033500
     CHANNELS 3 Yrotation Xrotation Zrotation
     End Site
     {
      OFFSET 0.000000 -1.423100 5.872300
     }
    }
   }
  }
 }
}
MOTION
Frames: 5
Frame Time: 0.008333
0.000000 85.388000 0.000000 0.000000 -5.767877 0.000000 0.000000 11.653817 0.000000 0.000000 -5.885947 0.000000 0.000000 -0.000000 0.000000 0.000000 -0.000000 0.000000 0.000000 12.528835 0.000000 0.000000 0.711642 0.000000 0.000000 -0.000000 0.000000 0.000000 0.000000 -90.000000 0.000000 -2.309062 0.000000 0.000000 2.309062 0.000000 0.000000 -0.000000 0.000000 0.000000 -0.000000 90.000000 0.000000 -2.309062 0.000000 0.000000 2.309062 0.000000 0.000000 8.520406 0.000000 0.000000 1.905762 0.000000 -0.000000 -4.658285 0.000000 0.000000 -0.000000 0.000000 0.000000 8.520406 0.000000 0.000000 1.905762 0.000000 -0.000000 -4.658285 0.000000 0.000000 -0.000000 0.000000
-206.760334 57.922882 26.821007 171.709799 -46.759317 -1.987157 4.885300 19.977261 4.759084 2.501780 11.478555 2.508005 3.259673 14.346060 3.188941 2.501246 11.471691 2.519914 0.328264 16.003078 1.416612 0.072428 -6.099191 2.606630 -2.164738 3.113895 -0.049956 0.015702 -8.101622 -10.782613 -75.064649 -57.635322 121.477353 -2.136944 6.819881 -29.343542 -11.487797 -4.191563 2.784477 0.716414 -46.620073 31.246391 115.426106 -60.871697 -130.102239 7.274325 -15.191632 -5.164499 4.948935 -25.742567 -1.344637 -39.431274 73.694027 -41.451448 5.561042 -12.945500 9.882848 0.014838 -0.119613 -0.035594 -3.825418 -24.124397 9.703064 55.781006 79.075926 55.749865 5.931406 -15.861324 -17.784769 0.011512 0.042030 -0.009044
-206.759552 57.919775 26.816271 171.724691 -46.752144 -1.990619 4.948413 19.996194 4.729552 2.485709 11.464012 2.520780 3.285874 14.351892 3.159350 2.517603 11.472986 2.505598 0.359645 15.984578 1.527783 0.247027 -6.046779 2.716387 -2.158672 3.058751 0.055377 0.140511 -8.244274 -10.849038 -75.057370 -57.641129 121.407540 -2.134609 6.826988 -29.331845 -11.462755 -4.098709 2.783087 0.678063 -46.253452 31.132533 114.164240 -60.903491 -129.161112 7.017139 -14.935512 -5.258640 4.938507 -25.751478 -1.357857 -39.450227 73.708362 -41.469771 5.560146 -12.957127 9.883772 0.009542 -0.117733 -0.031390 -3.813522 -24.136821 9.698314 55.800915 79.090820 55.779990 5.925963 -15.873626 -17.777314 0.014639 0.047515 -0.005686
-206.759732 57.915742 26.811599 171.758733 -46.742627 -2.002630 4.956534 19.999001 4.701989 2.500238 11.465567 2.511757 3.299299 14.354883 3.142390 2.540825 11.482253 2.473280 0.394133 15.967420 1.641974 0.416157 -5.981612 2.835964 -2.067634 2.970022 0.153433 0.183835 -8.361791 -10.908760 -75.063260 -57.643652 121.357904 -2.130987 6.834754 -29.315524 -11.432629 -4.001092 2.784316 0.598004 -45.863593 31.015786 112.739878 -60.940078 -128.060115 6.729350 -14.661970 -5.330683 4.920335 -25.760262 -1.373589 -39.471947 73.719224 -41.495046 5.558094 -12.969250 9.888217 0.005103 -0.115367 -0.026589 -3.815736 -24.151767 9.688566 55.812647 79.102876 55.797396 5.923753 -15.884350 -17.769838 0.009553 0.052592 -0.004536
-206.760133 57.911862 26.806763 171.771441 -46.740467 -1.998801 4.978020 20.005829 4.672730 2.554097 11.484824 2.460868 3.288247 14.337139 3.174196 2.554063 11.484868 2.460837 0.547564 16.028601 1.728963 0.467171 -5.984375 3.002369 -1.967070 2.888200 0.228249 0.223326 -8.484917 -10.968136 -75.076640 -57.643974 121.324175 -2.123338 6.844031 -29.295771 -11.386997 -3.889937 2.768176 0.487486 -45.461876 30.888376 111.200071 -60.996856 -126.842544 6.431083 -14.373995 -5.383709 4.919270 -25.765584 -1.390033 -39.501797 73.732033 -41.528794 5.562409 -12.979903 9.892612 -0.000241 -0.114920 -0.022264 -3.811448 -24.157122 9.677969 55.837657 79.107535 55.819068 5.922693 -15.892509 -17.760945 0.017232 0.058910 -0.002976
